<svg width="20" height="20" viewBox="0 0 20 20" fill="none" xmlns="http://www.w3.org/2000/svg">
<path fill-rule="evenodd" clip-rule="evenodd" d="M17.7388 2.59588C17.3928 2.03182 16.7737 1.73637 16.1546 1.81174C16.0243 1.82761 15.7753 1.91793 15.2621 2.28273C14.7629 2.63759 14.1305 3.16348 13.2342 3.9101L12.2211 4.75394V12.1206L13.4221 12.9671C14.2961 13.5831 14.9088 14.0141 15.3912 14.3009C15.8828 14.5933 16.1211 14.6608 16.2519 14.6686C16.8513 14.7043 17.4336 14.3966 17.7565 13.8462C17.8317 13.7179 17.913 13.4652 17.9566 12.881C17.9994 12.307 18 11.5411 18 10.4522V6.2808C18 5.09525 17.9994 4.25666 17.9532 3.63199C17.9058 2.9913 17.8168 2.72291 17.7388 2.59588ZM10.4211 11.6874V5.23227H4.73095C4.12329 5.23227 3.7139 5.23278 3.39654 5.25505C3.08778 5.27672 2.93368 5.31577 2.82937 5.36021C2.42802 5.53121 2.10134 5.86281 1.92927 6.29011C1.8826 6.40598 1.8437 6.57285 1.82234 6.89489C1.80047 7.22453 1.80001 7.64868 1.80001 8.27265V9.66405C1.80001 9.95807 1.80085 10.0478 1.80669 10.1154C1.88021 10.9666 2.52985 11.6095 3.30986 11.6808C3.37148 11.6864 3.45467 11.6874 3.74211 11.6874H10.4211ZM10.9953 3.43227L12.1127 2.50158C12.9716 1.78614 13.6569 1.21535 14.2192 0.815642C14.7742 0.421134 15.3342 0.0983325 15.9371 0.0249323C17.2733 -0.137744 18.5685 0.505936 19.2732 1.65468C19.5892 2.16996 19.6972 2.80825 19.7483 3.49921C19.8 4.19835 19.8 5.10388 19.8 6.24244V10.4902C19.8 11.5324 19.8 12.3658 19.7516 13.0149C19.7034 13.6617 19.6011 14.2592 19.3091 14.7569C18.6528 15.8758 17.4378 16.5424 16.1449 16.4654C15.5661 16.4309 15.0187 16.1736 14.4712 15.8481C13.9215 15.5212 13.2518 15.0492 12.4173 14.4611L11.0358 13.4874H10.8V16.5205C10.8 18.3077 9.38502 19.8001 7.58654 19.8001C6.97886 19.8001 6.37047 19.6257 5.84962 19.2722C4.72432 18.5083 3.89142 17.8045 3.40499 16.7149C3.01565 15.8428 2.88402 14.798 2.85121 13.4334C1.31188 13.1566 0.150149 11.8539 0.0133682 10.2703C-6.8808e-05 10.1148 -3.75755e-05 9.94037 4.62462e-06 9.70481C7.00881e-06 9.69142 9.4526e-06 9.67784 9.4526e-06 9.66405L9.21418e-06 8.24266C1.64439e-06 7.65615 -4.61377e-06 7.17205 0.0262841 6.77575C0.0535243 6.3651 0.111824 5.98459 0.259571 5.61771C0.605915 4.75767 1.27362 4.06648 2.12385 3.70424C2.48888 3.54872 2.86696 3.48779 3.27053 3.45947C3.6584 3.43225 4.13127 3.43226 4.69963 3.43227L10.9953 3.43227ZM4.65377 13.4874C4.68939 14.7215 4.80925 15.445 5.04863 15.9812C5.32082 16.5908 5.79441 17.0592 6.86054 17.7829C7.0684 17.924 7.32111 18.0001 7.58654 18.0001C8.34345 18.0001 9.00001 17.3617 9.00001 16.5205V13.4874H4.65377Z" fill="black"/>
</svg>
