<svg width="26" height="20" viewBox="0 0 26 20" fill="none" xmlns="http://www.w3.org/2000/svg">
<path fill-rule="evenodd" clip-rule="evenodd" d="M16.5805 1.97857C14.6326 1.97857 13.1152 3.49256 13.1152 5.28536C13.1152 7.07816 14.6326 8.59215 16.5805 8.59215C18.5285 8.59215 20.0459 7.07816 20.0459 5.28536C20.0459 3.49256 18.5285 1.97857 16.5805 1.97857ZM11.1366 5.28536C11.1366 2.33285 13.608 0 16.5805 0C19.553 0 22.0245 2.33285 22.0245 5.28536C22.0245 8.23788 19.553 10.5707 16.5805 10.5707C13.608 10.5707 11.1366 8.23788 11.1366 5.28536ZM4.33027 4.29608C4.87664 4.29608 5.31956 4.739 5.31956 5.28536V7.51813H7.67125C8.21762 7.51813 8.66054 7.96105 8.66054 8.50742C8.66054 9.05379 8.21762 9.49671 7.67125 9.49671H5.31956V11.7295C5.31956 12.2758 4.87664 12.7188 4.33027 12.7188C3.7839 12.7188 3.34098 12.2758 3.34098 11.7295V9.49671H0.989287C0.442919 9.49671 0 9.05379 0 8.50742C0 7.96105 0.442919 7.51813 0.989287 7.51813H3.34098V5.28536C3.34098 4.739 3.7839 4.29608 4.33027 4.29608ZM16.5805 14.3298C10.8195 14.3298 9.34225 17.5574 9.21209 18.8126C9.15574 19.3561 8.6695 19.751 8.12605 19.6946C7.58259 19.6383 7.18772 19.152 7.24407 18.6086C7.48513 16.2837 9.86858 12.3512 16.5805 12.3512C23.2925 12.3512 25.6759 16.2837 25.917 18.6086C25.9733 19.152 25.5785 19.6383 25.035 19.6946C24.4916 19.751 24.0053 19.3561 23.949 18.8126C23.8188 17.5574 22.3416 14.3298 16.5805 14.3298Z" fill="black"/>
</svg>
