<svg width="23" height="23" viewBox="0 0 23 23" fill="none" xmlns="http://www.w3.org/2000/svg">
<path d="M11.4424 22.8945C10.1826 22.8945 8.97852 22.7012 7.83008 22.3145C6.6875 21.9336 5.63867 21.3916 4.68359 20.6885C3.73438 19.9854 2.9082 19.1562 2.20508 18.2012C1.50195 17.252 0.957031 16.2061 0.570312 15.0635C0.189453 13.915 -0.000976562 12.7109 -0.000976562 11.4512C-0.000976562 10.1855 0.189453 8.98145 0.570312 7.83887C0.957031 6.69629 1.50195 5.64746 2.20508 4.69238C2.9082 3.7373 3.73438 2.91113 4.68359 2.21387C5.63867 1.51074 6.6875 0.96582 7.83008 0.579102C8.97852 0.192383 10.1826 -0.000976562 11.4424 -0.000976562C12.708 -0.000976562 13.9121 0.192383 15.0547 0.579102C16.1973 0.96582 17.2461 1.51074 18.2012 2.21387C19.1562 2.91113 19.9824 3.7373 20.6797 4.69238C21.3828 5.64746 21.9277 6.69629 22.3145 7.83887C22.7012 8.98145 22.8945 10.1855 22.8945 11.4512C22.8945 12.7109 22.7012 13.915 22.3145 15.0635C21.9277 16.2061 21.3828 17.252 20.6797 18.2012C19.9824 19.1562 19.1562 19.9854 18.2012 20.6885C17.2461 21.3916 16.1973 21.9336 15.0547 22.3145C13.9121 22.7012 12.708 22.8945 11.4424 22.8945ZM11.4424 21.2598C12.5264 21.2598 13.5576 21.0928 14.5361 20.7588C15.5205 20.4307 16.4199 19.9648 17.2344 19.3613C18.0547 18.7637 18.7637 18.0576 19.3613 17.2432C19.9648 16.4229 20.4307 15.5234 20.7588 14.5449C21.0869 13.5664 21.251 12.5352 21.251 11.4512C21.251 10.3672 21.0869 9.33594 20.7588 8.35742C20.4307 7.37305 19.9648 6.47363 19.3613 5.65918C18.7637 4.83887 18.0547 4.12988 17.2344 3.53223C16.4199 2.92871 15.5205 2.46289 14.5361 2.13477C13.5576 1.80664 12.5264 1.64258 11.4424 1.64258C10.3584 1.64258 9.32715 1.80664 8.34863 2.13477C7.37012 2.46289 6.4707 2.92871 5.65039 3.53223C4.83594 4.12988 4.12695 4.83887 3.52344 5.65918C2.92578 6.47363 2.45996 7.37305 2.12598 8.35742C1.79785 9.33594 1.63379 10.3672 1.63379 11.4512C1.63379 12.5352 1.79785 13.5664 2.12598 14.5449C2.45996 15.5234 2.92578 16.4229 3.52344 17.2432C4.12695 18.0576 4.83594 18.7637 5.65039 19.3613C6.4707 19.9648 7.37012 20.4307 8.34863 20.7588C9.32715 21.0928 10.3584 21.2598 11.4424 21.2598ZM6.18652 13.0068C5.75293 13.0068 5.38086 12.8545 5.07031 12.5498C4.76562 12.2451 4.61328 11.876 4.61328 11.4424C4.61328 11.0088 4.76562 10.6396 5.07031 10.335C5.38086 10.0244 5.75293 9.86914 6.18652 9.86914C6.61426 9.86914 6.98047 10.0244 7.28516 10.335C7.5957 10.6396 7.75098 11.0088 7.75098 11.4424C7.75098 11.876 7.5957 12.2451 7.28516 12.5498C6.98047 12.8545 6.61426 13.0068 6.18652 13.0068ZM11.4336 13.0068C11 13.0068 10.6309 12.8545 10.3262 12.5498C10.0215 12.2451 9.86914 11.876 9.86914 11.4424C9.86914 11.0088 10.0215 10.6396 10.3262 10.335C10.6309 10.0244 11 9.86914 11.4336 9.86914C11.8672 9.86914 12.2363 10.0244 12.541 10.335C12.8516 10.6396 13.0068 11.0088 13.0068 11.4424C13.0068 11.876 12.8516 12.2451 12.541 12.5498C12.2363 12.8545 11.8672 13.0068 11.4336 13.0068ZM16.6895 13.0068C16.2559 13.0068 15.8838 12.8545 15.5732 12.5498C15.2686 12.2451 15.1162 11.876 15.1162 11.4424C15.1162 11.0088 15.2686 10.6396 15.5732 10.335C15.8838 10.0244 16.2559 9.86914 16.6895 9.86914C17.123 9.86914 17.4922 10.0244 17.7969 10.335C18.1016 10.6396 18.2539 11.0088 18.2539 11.4424C18.2539 11.876 18.1016 12.2451 17.7969 12.5498C17.4922 12.8545 17.123 13.0068 16.6895 13.0068Z" fill="black"/>
</svg>
