<svg width="100" height="100" viewBox="0 0 100 100" fill="none" xmlns="http://www.w3.org/2000/svg">
<path d="M50 0C22.4696 0 0 22.4697 0 50C0 77.5304 22.4696 100 50 100C77.5304 100 100 77.5304 100 50C100 22.4697 77.5304 0 50 0ZM13.9676 50C13.9676 39.6761 18.421 30.162 25.5061 23.6842C28.3401 21.0527 33.1984 21.8624 35.2227 25.3036L47.7733 46.9636C48.9879 48.9879 48.9879 51.417 47.7733 53.4413L35.2227 75.1012C33.1984 78.745 28.3401 79.3522 25.3036 76.5182C18.4211 69.6356 13.9676 60.3239 13.9676 50ZM64.7773 74.6964L52.2267 53.0365C51.0121 51.0122 51.0121 48.583 52.2267 46.5587L64.7773 24.8988C66.8016 21.4575 71.4575 20.6478 74.4939 23.2794C81.5789 29.7571 86.0324 39.2713 86.0324 49.5951C86.0324 59.919 81.5789 69.4332 74.4939 75.9109C71.4575 79.1498 66.8016 78.3401 64.7773 74.6964Z" fill="white"/>
</svg>
